<?xml version="1.0" encoding="UTF-8"?>
<svg xmlns="http://www.w3.org/2000/svg" width="110" height="113" viewBox="0 0 110 113" fill="none">
  <path d="M5.5 21.7586H3.62875V27.88H1.87348V21.7586H0V20.009H5.5V21.7586Z" fill="#19272D"></path>
  <path d="M12.3382 20.0179V27.8799H10.5829V24.8237H8.11172V27.8799H6.35645V20.0179H8.11172V23.0741H10.5829V20.0179H12.3382Z" fill="#19272D"></path>
  <path d="M14.9389 21.7808V23.0741H18.2844V24.8237H14.9389V26.1281H18.2844V27.8799H13.1836V20.0179H14.9389V20.029H18.2844V21.7808H14.9389Z" fill="#19272D"></path>
  <path d="M22.5865 20.1492C22.5865 10.1125 31.8692 1.9477 43.2773 1.9477H66.7359C78.1441 1.9477 87.4245 10.1125 87.4245 20.1492V46.9518H89.3738V20.1492C89.3738 9.03956 79.2191 0 66.7359 0H43.2773C30.7874 0 20.6372 9.03956 20.6372 20.1492V28.3051H22.5865V20.1492Z" fill="#00ADEE"></path>
  <path d="M87.3621 57.9925C86.2782 65.1155 80.7603 71.6798 73.6835 73.8701C73.5653 73.908 61.7401 77.9392 60.5468 82.0282L60.4933 82.2508V111.037H49.6539V82.2597L49.6004 82.0371C48.4071 77.9481 36.5819 73.9169 36.4637 73.8791C29.3869 71.6887 23.869 65.1222 22.7851 58.0014H20.8135C21.9108 65.9436 28.0241 73.3048 35.8861 75.7377C39.0085 76.706 46.8994 80.2341 47.7068 82.5046V113L47.9968 112.958L47.9722 113H62.4471V82.5046C63.25 80.2341 71.1454 76.7171 74.2678 75.7377C82.1297 73.3048 88.2431 65.9436 89.3404 58.0014L87.3621 57.9925Z" fill="#00ADEE"></path>
  <path d="M8.20762 30.7848C9.41651 30.7777 10.6141 31.0171 11.7271 31.4882C13.8983 32.4058 15.6278 34.1288 16.5513 36.294C17.0165 37.3983 17.2561 38.5841 17.2561 39.782C17.2561 40.98 17.0165 42.1658 16.5513 43.2701C15.6262 45.4357 13.8951 47.1586 11.7226 48.0759C10.6107 48.5445 9.41459 48.7816 8.20762 48.7726H5.48438V55.3058H0V30.7848H8.20762ZM8.19201 43.299C8.66881 43.3015 9.14103 43.206 9.57927 43.0186C10.434 42.6587 11.1164 41.9832 11.484 41.1332C11.6743 40.7011 11.7716 40.234 11.7695 39.762C11.7729 39.2949 11.6756 38.8326 11.484 38.4064C11.2983 37.9919 11.0383 37.6147 10.7167 37.2934C10.3886 36.9715 10.0027 36.7141 9.57927 36.5344C9.14103 36.3469 8.66881 36.2514 8.19201 36.2539H5.48438V43.2946L8.19201 43.299Z" fill="#19272D"></path>
  <path d="M19.897 55.3057V30.7514H25.3814V55.3057H19.897Z" fill="#19272D"></path>
  <path d="M39.0554 55.3459C38.6827 55.346 38.3103 55.3237 37.9402 55.2791C37.5722 55.2346 37.2109 55.1789 36.8541 55.1122C36.4976 55.0468 36.1459 54.9575 35.8013 54.845C35.4564 54.7337 35.1159 54.6113 34.7799 54.4778C34.4676 54.3242 34.1554 54.1617 33.8431 53.9947C33.5309 53.8278 33.2186 53.6453 32.9042 53.4449C32.6067 53.2629 32.3254 53.0559 32.0633 52.8261C31.7934 52.5924 31.537 52.3542 31.2894 52.1094C30.7732 51.6375 30.3231 51.0985 29.9512 50.5067C29.551 49.9147 29.2018 49.2899 28.9074 48.6391C28.6448 47.9652 28.4309 47.2734 28.2673 46.569C28.13 45.8433 28.0628 45.1061 28.0666 44.3675V41.8299C28.0668 41.0916 28.134 40.3548 28.2673 39.6285C28.3587 39.2723 28.4524 38.9206 28.5528 38.5756C28.6531 38.2306 28.7758 37.8923 28.9074 37.5584C29.039 37.2245 29.2263 36.9351 29.3936 36.6235C29.563 36.3167 29.7491 36.0195 29.9512 35.7331C30.1283 35.4232 30.3368 35.1324 30.5735 34.865C30.8069 34.5979 31.0478 34.3419 31.2961 34.097C31.7946 33.6061 32.3349 33.1592 32.9108 32.7615C33.5072 32.3763 34.1346 32.0413 34.7866 31.7598C35.1211 31.6262 35.4556 31.506 35.808 31.3925C36.1534 31.2831 36.5049 31.1939 36.8608 31.1254C38.3157 30.816 39.8196 30.816 41.2746 31.1254C41.6303 31.1942 41.9818 31.2834 42.3273 31.3925C42.673 31.506 43.0142 31.6262 43.3466 31.7598C43.9943 32.0264 44.6113 32.3623 45.1866 32.7615C45.7759 33.1515 46.325 33.5989 46.8259 34.097C47.3244 34.5975 47.7726 35.1455 48.1641 35.7331C48.5649 36.306 48.9014 36.9211 49.1677 37.5673C49.4489 38.2342 49.6618 38.9278 49.8034 39.6374L44.4506 40.737C44.384 40.3838 44.2831 40.0379 44.1495 39.7042C43.9905 39.3819 43.8117 39.0696 43.6142 38.7693C43.4432 38.4629 43.2162 38.1911 42.9451 37.9679C42.8359 37.838 42.7125 37.7208 42.5771 37.6185C42.4433 37.5183 42.2983 37.4114 42.1422 37.3002C41.8412 37.103 41.5284 36.9246 41.2054 36.7659C40.8704 36.6322 40.523 36.5316 40.1683 36.4654C39.4439 36.2873 38.687 36.2873 37.9625 36.4654C37.6078 36.5316 37.2605 36.6322 36.9254 36.7659C36.6025 36.9246 36.2896 37.103 35.9887 37.3002C35.8326 37.4114 35.6876 37.5228 35.5538 37.6185C35.4118 37.7253 35.2777 37.8421 35.1523 37.9679C34.9035 38.2125 34.6793 38.4809 34.4832 38.7693C34.2732 39.0557 34.105 39.3705 33.9836 39.7042C33.9167 39.8822 33.8543 40.0536 33.7985 40.2206C33.7427 40.3875 33.6915 40.5589 33.6491 40.737C33.5835 41.1007 33.5499 41.4694 33.5487 41.8389V44.3764C33.5415 44.7566 33.5699 45.1367 33.6335 45.5117C33.6758 45.6897 33.7271 45.8634 33.7829 46.0303C33.8387 46.1972 33.9011 46.3575 33.968 46.5133C34.0964 46.8438 34.2641 47.1577 34.4676 47.4482C34.5791 47.604 34.6906 47.7524 34.8022 47.8934L35.1367 48.2941L35.5382 48.628C35.672 48.7393 35.817 48.8506 35.9731 48.9619C36.2601 49.1715 36.5755 49.3394 36.9098 49.4605C37.0882 49.5295 37.26 49.5896 37.4273 49.6452C37.5945 49.7009 37.7663 49.7499 37.9469 49.7944C38.6761 49.928 39.4236 49.928 40.1527 49.7944C40.3312 49.7499 40.5051 49.7009 40.6724 49.6452C40.8397 49.5896 41.0114 49.5295 41.1898 49.4605C41.5242 49.3394 41.8395 49.1715 42.1266 48.9619C42.4155 48.7661 42.6845 48.5425 42.9295 48.2941C43.0633 48.1605 43.1837 48.027 43.2953 47.8934C43.4087 47.7543 43.5095 47.6053 43.5964 47.4482C43.7126 47.3122 43.8122 47.1627 43.893 47.003L44.1428 46.5022C44.2102 46.3454 44.2661 46.184 44.3101 46.0192C44.3547 45.8522 44.3993 45.6786 44.4439 45.5005L49.7967 46.569C49.6694 47.2821 49.456 47.9773 49.161 48.6391C48.8973 49.297 48.5607 49.9235 48.1574 50.5067C47.9567 50.7961 47.7455 51.0743 47.524 51.3414C47.3024 51.6085 47.0682 51.8645 46.8214 52.1094C46.5761 52.3542 46.3196 52.5931 46.0519 52.8261C45.7834 53.0608 45.492 53.2681 45.1821 53.4449C44.8917 53.6452 44.5901 53.8287 44.2788 53.9947C43.9666 54.1617 43.6543 54.3242 43.3421 54.4778C43.0299 54.6314 42.673 54.7337 42.3228 54.845C41.9782 54.9573 41.6266 55.0465 41.2701 55.1122C40.891 55.1789 40.523 55.2346 40.1661 55.2791C39.7976 55.3245 39.4267 55.3468 39.0554 55.3459Z" fill="#19272D"></path>
  <path d="M52.4307 55.3057V30.8204H57.915V40.2984L65.2038 30.787H72.1178L64.2603 40.964L72.4613 55.3057H66.174L60.6561 45.6674L57.915 49.24V55.3057H52.4307Z" fill="#19272D"></path>
  <path d="M88.9789 49.8388V55.3057H75.1353V30.7514H80.6196V49.8388H88.9789Z" fill="#19272D"></path>
  <path d="M97.1377 55.3058H91.6533V30.7848H99.8609C101.07 30.7781 102.267 31.0174 103.38 31.4882C105.552 32.4059 107.281 34.1288 108.205 36.294C108.713 37.5043 108.95 38.8105 108.901 40.1218C108.852 41.433 108.517 42.7178 107.919 43.8867C107.278 45.1167 106.363 46.183 105.243 47.003L110 55.3458H103.71L99.9546 48.7726H97.1377V55.3058ZM97.1377 43.2857H99.8453C100.323 43.2884 100.796 43.1929 101.235 43.0052C102.088 42.6436 102.77 41.9687 103.14 41.1198C103.33 40.6878 103.427 40.2206 103.425 39.7487C103.428 39.2816 103.331 38.8192 103.14 38.3931C102.764 37.5527 102.083 36.8855 101.235 36.5255C100.796 36.3378 100.323 36.2423 99.8453 36.245H97.1377V43.2857Z" fill="#19272D"></path>
</svg>
